ExternalForces									
version=1									
nRows=174									
nColumns=10									
inDegrees=yes									
endheader									
time	chair_force_vx	chair_force_vy	chair_force_vz	chair_force_px	chair_force_py	chair_force_pz	chair_torque_x	chair_torque_y	chair_torque_z
0	-22.58154674	273.6747522	0	0	0	0	0	0	0
0.00620166	-20.83744656	272.0905643	0	0	0	0	0	0	0
0.00710768	-21.45993156	273.5786947	0	0	0	0	0	0	0
0.00898287	-21.19649787	274.0364097	0	0	0	0	0	0	0
0.01557401	-19.79609823	275.6780252	0	0	0	0	0	0	0
0.01739084	-18.62386596	274.9309555	0	0	0	0	0	0	0
0.0249293	-14.52402364	273.5930667	0	0	0	0	0	0	0
0.03246777	-11.96890351	275.2594791	0	0	0	0	0	0	0
0.04404149	-6.19005838	275.0114901	0	0	0	0	0	0	0
0.06402492	4.37012289	275.8610398	0	0	0	0	0	0	0
0.06664287	4.85341422	275.6799956	0	0	0	0	0	0	0
0.07319645	7.7241179	275.5386056	0	0	0	0	0	0	0
0.08004392	11.95871189	275.5966743	0	0	0	0	0	0	0
0.08243849	12.67267616	275.5689012	0	0	0	0	0	0	0
0.09153801	14.75143697	275.4367483	0	0	0	0	0	0	0
0.09251496	17.15240037	275.5924931	0	0	0	0	0	0	0
0.09395992	18.01704738	275.6157514	0	0	0	0	0	0	0
0.10118471	22.01153984	275.698285	0	0	0	0	0	0	0
0.10840951	24.27044389	275.3429727	0	0	0	0	0	0	0
0.10987611	25.36033723	275.2712452	0	0	0	0	0	0	0
0.11587026	28.13312482	274.7102185	0	0	0	0	0	0	0
0.12633987	26.14587638	272.8048161	0	0	0	0	0	0	0
0.12741801	32.93110285	273.1449262	0	0	0	0	0	0	0
0.12849616	32.95252188	272.9435618	0	0	0	0	0	0	0
0.13388688	34.31382145	271.9971487	0	0	0	0	0	0	0
0.14399344	39.71808779	270.3252369	0	0	0	0	0	0	0
0.14522017	38.81228656	269.9892966	0	0	0	0	0	0	0
0.1489135	39.28129788	269.2291277	0	0	0	0	0	0	0
0.15765607	41.17504888	267.4689823	0	0	0	0	0	0	0
0.15888784	41.91819846	267.2579028	0	0	0	0	0	0	0
0.16480516	44.031242	266.1223864	0	0	0	0	0	0	0
0.17395742	44.46258358	264.1268977	0	0	0	0	0	0	0
0.17493918	46.43267021	264.0685726	0	0	0	0	0	0	0
0.17644452	46.99768213	263.7794693	0	0	0	0	0	0	0
0.18397119	49.59867191	262.3113993	0	0	0	0	0	0	0
0.18703567	50.06877206	261.6634463	0	0	0	0	0	0	0
0.1974131	50.4820989	259.3622187	0	0	0	0	0	0	0
0.19849049	52.90001354	259.3147041	0	0	0	0	0	0	0
0.19995182	53.32481431	259.0184233	0	0	0	0	0	0	0
0.20725847	55.20459168	257.4245748	0	0	0	0	0	0	0
0.21859956	55.64961981	254.5465421	0	0	0	0	0	0	0
0.21974855	57.78359254	254.4152306	0	0	0	0	0	0	0
0.2213309	58.11698777	254.0236222	0	0	0	0	0	0	0
0.22924263	59.68277506	252.0337344	0	0	0	0	0	0	0
0.24159572	60.10112023	248.7028062	0	0	0	0	0	0	0
0.24283103	62.14003973	248.5232542	0	0	0	0	0	0	0
0.24454032	62.42810636	248.07461	0	0	0	0	0	0	0
0.25308673	63.8818918	245.8144112	0	0	0	0	0	0	0
0.26040968	65.25616161	243.8599669	0	0	0	0	0	0	0
0.2709185	65.62000242	240.8505532	0	0	0	0	0	0	0
0.27200342	67.16140137	240.6487307	0	0	0	0	0	0	0
0.27371015	67.56878394	240.1775833	0	0	0	0	0	0	0
0.28224377	69.93429444	237.8194484	0	0	0	0	0	0	0
0.28393765	69.82813838	237.3042152	0	0	0	0	0	0	0
0.29220296	67.73046306	234.6619321	0	0	0	0	0	0	0
0.29311149	71.05012389	234.6253993	0	0	0	0	0	0	0
0.29431291	71.38553293	234.2848143	0	0	0	0	0	0	0
0.30031999	72.70377279	232.5474389	0	0	0	0	0	0	0
0.30940914	72.89069957	229.6981455	0	0	0	0	0	0	0
0.31053807	74.21522906	229.4251803	0	0	0	0	0	0	0
0.312398	74.58369692	228.8477395	0	0	0	0	0	0	0
0.32169764	77.28450772	225.976529	0	0	0	0	0	0	0
0.32308758	76.65607621	225.4743836	0	0	0	0	0	0	0
0.32890158	76.50962518	223.5327578	0	0	0	0	0	0	0
0.33275412	77.24885706	222.2960264	0	0	0	0	0	0	0
0.34194568	78.17390591	219.2912947	0	0	0	0	0	0	0
0.35113724	79.26603814	216.3200985	0	0	0	0	0	0	0
0.35351701	79.23348812	215.535766	0	0	0	0	0	0	0
0.36219827	78.67040716	212.6558364	0	0	0	0	0	0	0
0.36330529	79.71974688	212.3511859	0	0	0	0	0	0	0
0.36525396	79.94483775	211.7246308	0	0	0	0	0	0	0
0.37499727	83.24747383	208.7025516	0	0	0	0	0	0	0
0.37599028	81.78521145	208.3007338	0	0	0	0	0	0	0
0.37929437	81.10828582	207.1825997	0	0	0	0	0	0	0
0.38770772	75.59654221	204.164073	0	0	0	0	0	0	0
0.3886217	82.18412353	204.1768235	0	0	0	0	0	0	0
0.38953568	81.98442162	203.8675657	0	0	0	0	0	0	0
0.39410559	81.88559202	202.3646625	0	0	0	0	0	0	0
0.4045095	82.68487353	198.998001	0	0	0	0	0	0	0
0.41212995	82.48582021	196.4856845	0	0	0	0	0	0	0
0.41310977	83.1991683	196.180444	0	0	0	0	0	0	0
0.41536854	83.54781371	195.4129364	0	0	0	0	0	0	0
0.42460754	87.24901099	192.2638288	0	0	0	0	0	0	0
0.42553144	85.64484848	191.8785428	0	0	0	0	0	0	0
0.42838868	84.95467672	190.8341617	0	0	0	0	0	0	0
0.43475422	84.71657944	188.5615301	0	0	0	0	0	0	0
0.43569615	85.20482243	188.2420219	0	0	0	0	0	0	0
0.43862584	85.62812621	187.2175121	0	0	0	0	0	0	0
0.44694353	86.47942038	184.3230284	0	0	0	0	0	0	0
0.45367449	86.74437185	181.9923973	0	0	0	0	0	0	0
0.45572628	87.19829118	181.2939039	0	0	0	0	0	0	0
0.46204608	88.43688219	179.1422065	0	0	0	0	0	0	0
0.46432003	88.22844939	178.3578855	0	0	0	0	0	0	0
0.46983489	88.46690441	176.4720949	0	0	0	0	0	0	0
0.47459112	89.7427217	174.861873	0	0	0	0	0	0	0
0.47868456	89.48469043	173.4606141	0	0	0	0	0	0	0
0.48782269	87.37825189	170.3385228	0	0	0	0	0	0	0
0.48877971	90.56243418	170.0290902	0	0	0	0	0	0	0
0.48997001	90.60840045	169.6244046	0	0	0	0	0	0	0
0.49592147	90.98266399	167.603397	0	0	0	0	0	0	0
0.49927914	91.55745042	166.464348	0	0	0	0	0	0	0
0.50626371	90.36348422	164.0515057	0	0	0	0	0	0	0
0.50705168	91.88372219	163.7674276	0	0	0	0	0	0	0
0.50850292	92.2027601	163.2546659	0	0	0	0	0	0	0
0.51398455	93.35169396	161.322216	0	0	0	0	0	0	0
0.51626062	92.95819352	160.535172	0	0	0	0	0	0	0
0.5216593	92.83864447	158.6941868	0	0	0	0	0	0	0
0.52417703	93.22289149	157.8478484	0	0	0	0	0	0	0
0.53007469	93.37738986	155.9190785	0	0	0	0	0	0	0
0.53381944	93.75093802	154.7229083	0	0	0	0	0	0	0
0.54006296	92.38580285	152.8378575	0	0	0	0	0	0	0
0.54078567	93.54513615	152.5941304	0	0	0	0	0	0	0
0.54232151	93.81226994	152.131049	0	0	0	0	0	0	0
0.54717068	94.27766542	150.7050854	0	0	0	0	0	0	0
0.55162703	93.9473712	149.448207	0	0	0	0	0	0	0
0.55762424	96.33036811	147.7081888	0	0	0	0	0	0	0
0.55867586	94.92942923	147.4689981	0	0	0	0	0	0	0
0.56251512	94.17819131	146.461922	0	0	0	0	0	0	0
0.57055619	88.30953379	144.6018066	0	0	0	0	0	0	0
0.57140092	94.85952985	144.1057774	0	0	0	0	0	0	0
0.57224565	94.61836294	143.898601	0	0	0	0	0	0	0
0.57646928	94.27217087	142.837447	0	0	0	0	0	0	0
0.58272463	96.92428085	141.1377997	0	0	0	0	0	0	0
0.5836975	95.35094976	140.9746998	0	0	0	0	0	0	0
0.58719216	94.57414304	140.1540032	0	0	0	0	0	0	0
0.5927628	94.05392144	138.8280008	0	0	0	0	0	0	0
0.59361271	94.47853347	138.5987788	0	0	0	0	0	0	0
0.59607699	94.67382117	137.9949974	0	0	0	0	0	0	0
0.60240077	94.53566175	136.4915617	0	0	0	0	0	0	0
0.60567117	95.29978774	135.6501134	0	0	0	0	0	0	0
0.61060466	94.18049394	134.5360464	0	0	0	0	0	0	0
0.61134734	94.70967983	134.3219025	0	0	0	0	0	0	0
0.6133985	94.88109929	133.8228147	0	0	0	0	0	0	0
0.61897082	94.84755191	132.530737	0	0	0	0	0	0	0
0.62346574	94.84743384	131.5215732	0	0	0	0	0	0	0
0.6290684	94.2746004	130.3567917	0	0	0	0	0	0	0
0.62995278	94.56597853	130.1462708	0	0	0	0	0	0	0
0.63280263	94.66171215	129.5468803	0	0	0	0	0	0	0
0.63907102	90.23012186	128.6863905	0	0	0	0	0	0	0
0.63978335	94.0603238	128.2012352	0	0	0	0	0	0	0
0.64071841	94.22521149	128.0044626	0	0	0	0	0	0	0
0.64465263	94.61043543	127.2158509	0	0	0	0	0	0	0
0.64857323	93.88437491	126.5550869	0	0	0	0	0	0	0
0.65439142	96.28913599	125.2607065	0	0	0	0	0	0	0
0.65524259	94.53385234	125.2885443	0	0	0	0	0	0	0
0.65834641	93.47946686	124.8550364	0	0	0	0	0	0	0
0.6631502	92.64117524	124.1261399	0	0	0	0	0	0	0
0.66445	92.94711112	123.8749652	0	0	0	0	0	0	0
0.6673651	92.77668713	123.411842	0	0	0	0	0	0	0
0.67489049	91.31158679	122.3662656	0	0	0	0	0	0	0
0.67588514	92.15689935	122.108224	0	0	0	0	0	0	0
0.67755397	92.02031292	121.861312	0	0	0	0	0	0	0
0.68589811	91.15703689	120.6780829	0	0	0	0	0	0	0
0.68744038	91.22541824	120.4350809	0	0	0	0	0	0	0
0.69181095	91.04848786	119.8007771	0	0	0	0	0	0	0
0.69564102	90.50677528	119.3123774	0	0	0	0	0	0	0
0.70027113	92.23840704	118.4061718	0	0	0	0	0	0	0
0.70115809	90.90751964	118.4687994	0	0	0	0	0	0	0
0.70487937	89.74498993	118.1496193	0	0	0	0	0	0	0
0.71135167	89.58974591	117.4255531	0	0	0	0	0	0	0
0.71661142	88.45209957	117.0628326	0	0	0	0	0	0	0
0.72802772	86.95320738	116.3141736	0	0	0	0	0	0	0
0.74490009	85.44538424	115.3457578	0	0	0	0	0	0	0
0.75809337	84.1465014	114.7832947	0	0	0	0	0	0	0
0.77128666	83.30377803	114.1907547	0	0	0	0	0	0	0
0.78763122	82.73528225	113.4083945	0	0	0	0	0	0	0
0.80271539	82.53472916	112.6385639	0	0	0	0	0	0	0
0.81604066	82.58687231	111.771522	0	0	0	0	0	0	0
0.82936593	82.81112097	110.7260391	0	0	0	0	0	0	0
0.89854614	0	0	0	0	0	0	0	0	0
0.90197064	0	0	0	0	0	0	0	0	0
0.9066754	0	0	0	0	0	0	0	0	0
0.91138016	0	0	0	0	0	0	0	0	0
0.91486833	0	0	0	0	0	0	0	0	0
